<svg xmlns="http://www.w3.org/2000/svg" viewBox="0 0 800 420" width="800" height="420" font-family="Segoe UI, Arial, sans-serif">
  <rect width="800" height="420" fill="#0d1117" rx="10"/>
  <!-- Fake browser chrome -->
  <rect width="800" height="40" fill="#161b22" rx="10"/>
  <rect x="0" y="30" width="800" height="10" fill="#161b22"/>
  <circle cx="20" cy="20" r="6" fill="#ff5f57"/>
  <circle cx="40" cy="20" r="6" fill="#febc2e"/>
  <circle cx="60" cy="20" r="6" fill="#28c840"/>
  <rect x="100" y="8" width="500" height="24" rx="6" fill="#21262d"/>
  <text x="350" y="25" text-anchor="middle" font-size="10" fill="#8b949e">github.com/sufideen/azl-bicepdeploy/actions</text>

  <!-- Actions UI mockup -->
  <rect x="0" y="40" width="800" height="380" fill="#0d1117"/>
  <text x="30" y="78" font-size="13" font-weight="bold" fill="white">Actions</text>
  <rect x="30" y="88" width="740" height="1" fill="#21262d"/>

  <!-- Workflow run row -->
  <rect x="30" y="100" width="740" height="68" rx="6" fill="#161b22" stroke="#238636" stroke-width="1.5"/>
  <circle cx="60" cy="134" r="14" fill="#238636"/>
  <text x="60" y="139" text-anchor="middle" font-size="14">✓</text>
  <text x="90" y="125" font-size="12" font-weight="bold" fill="white">feat: secure multi-scope baseline with OIDC automation engine</text>
  <text x="90" y="143" font-size="10" fill="#8b949e">Azure ALZ GitOps Deployment  ·  main  ·  2 minutes ago</text>
  <text x="90" y="159" font-size="10" fill="#3fb950">● validate_and_deploy  completed in 1m 47s</text>
  <rect x="680" y="118" width="76" height="28" rx="4" fill="#21262d" stroke="#30363d" stroke-width="1"/>
  <text x="718" y="137" text-anchor="middle" font-size="10" fill="#8b949e">Re-run jobs</text>

  <!-- Job detail panel -->
  <rect x="30" y="185" width="220" height="180" rx="6" fill="#161b22" stroke="#30363d" stroke-width="1"/>
  <text x="50" y="207" font-size="11" font-weight="bold" fill="white">Jobs</text>
  <rect x="40" y="215" width="200" height="36" rx="4" fill="#0d419d"/>
  <circle cx="58" cy="233" r="8" fill="#238636"/>
  <text x="58" y="237" text-anchor="middle" font-size="10">✓</text>
  <text x="75" y="237" font-size="11" font-weight="bold" fill="white">validate_and_deploy</text>

  <!-- Steps panel -->
  <rect x="270" y="185" width="500" height="180" rx="6" fill="#161b22" stroke="#30363d" stroke-width="1"/>
  <text x="290" y="207" font-size="11" font-weight="bold" fill="white">validate_and_deploy</text>
  <rect x="290" y="215" width="460" height="1" fill="#21262d"/>

  <!-- Step rows -->
  <text x="310" y="238" font-size="20">✅</text>
  <text x="335" y="238" font-size="11" fill="#3fb950">Set up job</text>
  <text x="720" y="238" text-anchor="end" font-size="10" fill="#8b949e">1s</text>

  <text x="310" y="262" font-size="20">✅</text>
  <text x="335" y="262" font-size="11" fill="#3fb950">Checkout Code</text>
  <text x="720" y="262" text-anchor="end" font-size="10" fill="#8b949e">3s</text>

  <text x="310" y="286" font-size="20">✅</text>
  <text x="335" y="286" font-size="11" fill="#3fb950">Azure Login via OIDC</text>
  <text x="720" y="286" text-anchor="end" font-size="10" fill="#8b949e">8s</text>

  <text x="310" y="310" font-size="20">✅</text>
  <text x="335" y="310" font-size="11" fill="#3fb950">Run Bicep Lint Check</text>
  <text x="720" y="310" text-anchor="end" font-size="10" fill="#8b949e">12s</text>

  <text x="310" y="334" font-size="20">✅</text>
  <text x="335" y="334" font-size="11" fill="#3fb950">Azure Deployment Dry-Run (What-If)</text>
  <text x="720" y="334" text-anchor="end" font-size="10" fill="#8b949e">43s</text>

  <text x="310" y="358" font-size="20">✅</text>
  <text x="335" y="358" font-size="11" fill="#3fb950">Deploy Hub Infrastructure</text>
  <text x="720" y="358" text-anchor="end" font-size="10" fill="#8b949e">1m 7s</text>

  <!-- Placeholder banner -->
  <rect x="0" y="380" width="800" height="40" rx="0" fill="#9e6a03" opacity="0.85"/>
  <text x="400" y="405" text-anchor="middle" font-size="12" font-weight="bold" fill="white">📸 Placeholder — Replace with actual GitHub Actions screenshot</text>
</svg>
